# xmcd
#
# Track frame offsets:
#	150
#	11314
#	23748
#	41168
#	56886
#	66686
#	81298
#	93148
#	107946
#	119586
#	132542
#	143884
#	159372
#	171557
#	184966
#	201852
#	214756
#	228477
#	242407
#	257970
#
# Disc length: 3625 seconds
#
# Revision: 4
# Processed by: cddbd v1.5.2PL0 Copyright (c) Steve Scherf et al.
# Submitted via: EZCDAudioConverter 2.1.7.1
#
DISCID=2e0e2714
DTITLE=V/A - Boobs
DYEAR=2005
DGENRE=
TTITLE0=The Rats - Turtle Dove
TTITLE1=Hector - Wired Up
TTITLE2=Screemer - Interplanetary Twist
TTITLE3=Chunky - Albatross
TTITLE4=Jimmy Jukebox - Motor Boat
TTITLE5=Shelby - (Dance With The) Guitar Man
TTITLE6=Erasmus Chorum - Jungle
TTITLE7=Hot Rod - Love Is Alright (Hey)
TTITLE8=The Sensation - Black Eyed Woman
TTITLE9=Paul Ryan - Natural Gas
TTITLE10=Iron Cross - Little Bit O' Soul
TTITLE11=Light Fantastic - Don't Let Go
TTITLE12=Catapult - Let Your Hair Hang Down
TTITLE13=Angel - Good Time Fanny
TTITLE14=Barry Blood - Poor Annie
TTITLE15=Ice Cream - Shout It Out
TTITLE16=Boston Boppers - Did You Get What You Wanted
TTITLE17=Sensation - Baby
TTITLE18=Hobnail - She's Just A Friend Of Mine
TTITLE19=Rock Rebellion - Let's Go
EXTD=
EXTT0=
EXTT1=
EXTT2=
EXTT3=
EXTT4=
EXTT5=
EXTT6=
EXTT7=
EXTT8=
EXTT9=
EXTT10=
EXTT11=
EXTT12=
EXTT13=
EXTT14=
EXTT15=
EXTT16=
EXTT17=
EXTT18=
EXTT19=
PLAYORDER=
